<svg width="428" height="81" viewBox="0 0 428 81" fill="none" xmlns="http://www.w3.org/2000/svg">
<path d="M55.8685 30.784C55.8685 38.344 53.3575 44.851 48.3355 50.305C43.3675 55.759 37.6165 58.378 31.0825 58.162C21.2545 57.838 12.0475 57.784 3.46146 58V55.489H11.0755V4.702H3.46146V2.191C8.26746 2.461 12.5335 2.569 16.2595 2.51499C19.9855 2.461 25.0075 2.461 31.3255 2.51499C38.9395 2.623 44.9335 5.215 49.3075 10.291C53.6815 15.313 55.8685 22.144 55.8685 30.784ZM43.4755 47.713C46.1215 43.501 47.3905 37.696 47.2825 30.298C47.2285 22.846 46.1755 17.122 44.1235 13.126C41.5855 7.996 37.3195 5.188 31.3255 4.702C26.4655 4.432 22.1185 4.54 18.2845 5.026V55.489C21.9565 55.813 24.7105 55.975 26.5465 55.975C28.4365 55.975 29.9755 55.921 31.1635 55.813C36.7255 55.003 40.8295 52.303 43.4755 47.713ZM95.8749 39.208H70.1169C70.1169 43.96 71.3049 47.659 73.6809 50.305C76.1109 53.167 79.6749 54.598 84.3729 54.598C86.8569 54.598 90.0699 53.356 94.0119 50.872L95.0649 51.682C91.2309 56.38 86.4789 58.729 80.8089 58.729C75.1389 58.729 70.6839 57.028 67.4439 53.626C64.4199 50.332 62.9079 45.958 62.9079 40.504C62.9079 35.05 64.5279 30.352 67.7679 26.41C71.0619 22.414 75.4629 20.416 80.9709 20.416C85.5069 20.416 89.1519 21.955 91.9059 25.033C94.6599 28.057 96.0369 31.783 96.0369 36.211C96.0369 36.805 95.9829 37.804 95.8749 39.208ZM88.9089 36.292C88.9089 32.404 88.1799 29.218 86.7219 26.734C85.3179 24.25 83.1849 23.008 80.3229 23.008C77.4609 23.008 75.0579 24.169 73.1139 26.491C71.1699 28.813 70.1979 32.026 70.1979 36.13C80.2959 36.4 86.5329 36.454 88.9089 36.292ZM141.303 20.983V23.17H139.197C137.739 23.17 136.47 24.331 135.39 26.653L121.863 58H117.975L104.448 25.033C103.962 23.791 103.044 23.17 101.694 23.17H99.1022V20.983H117.894V23.17H114.087C112.683 23.17 111.981 23.683 111.981 24.709C111.981 24.925 112.035 25.195 112.143 25.519L121.863 50.791L131.34 26.653C131.718 25.735 131.907 25.006 131.907 24.466C131.907 23.602 131.448 23.17 130.53 23.17H126.48V20.983H141.303ZM188.953 47.632L190.087 48.928C187.225 52.924 184.174 55.651 180.934 57.109C177.694 58.567 173.725 59.296 169.027 59.296C162.115 59.296 156.229 56.461 151.369 50.791C146.509 45.013 144.106 37.939 144.16 29.569C144.268 21.145 146.698 14.287 151.45 8.995C156.202 3.649 162.061 0.975995 169.027 0.975995C173.455 0.975995 176.668 1.192 178.666 1.624C180.664 2.002 183.067 2.731 185.875 3.811V16.528H183.445C183.067 11.776 181.798 8.347 179.638 6.241C177.478 4.081 174.022 3.109 169.27 3.325C158.794 3.811 153.556 12.748 153.556 30.136C153.556 37.804 154.906 44.095 157.606 49.009C160.414 53.869 164.086 56.353 168.622 56.461C173.158 56.515 176.884 55.867 179.8 54.517C182.716 53.113 185.767 50.818 188.953 47.632ZM226.651 25.438C230.107 28.84 231.835 33.349 231.835 38.965C231.835 44.527 229.918 49.198 226.084 52.978C222.25 56.758 217.228 58.702 211.018 58.81C206.104 58.864 201.946 57.163 198.544 53.707C195.304 50.197 193.684 45.58 193.684 39.856C193.684 34.078 195.493 29.353 199.111 25.681C202.729 22.009 207.643 20.173 213.853 20.173C218.983 20.173 223.249 21.928 226.651 25.438ZM214.258 56.218C217.66 56.218 220.198 54.787 221.872 51.925C223.6 49.063 224.464 45.364 224.464 40.828C224.464 36.238 223.303 32.08 220.981 28.354C218.605 24.682 215.662 22.846 212.152 22.846C204.754 22.846 201.055 27.571 201.055 37.021C201.055 42.043 201.973 46.282 203.809 49.738C206.131 54.058 209.614 56.218 214.258 56.218ZM280.607 55.813V58H260.843V55.813H265.622C266.648 55.813 267.242 55.192 267.404 53.95V34.753C267.404 31.621 266.594 29.191 264.974 27.463C263.354 25.681 261.275 24.79 258.737 24.79C256.199 24.79 253.85 25.627 251.69 27.301C249.638 29.029 248.612 30.649 248.612 32.161V53.95C248.774 55.192 249.395 55.813 250.475 55.813H255.173V58H235.409V55.813H240.107C241.187 55.813 241.808 55.192 241.97 53.95V25.924C241.916 24.088 240.998 23.17 239.216 23.17H235.409V20.983H248.693V23.17C248.639 23.818 248.612 24.574 248.612 25.438V27.058C249.044 26.032 250.178 24.736 252.014 23.17C254.768 21.01 257.765 19.93 261.005 19.93C269.699 19.93 274.046 24.547 274.046 33.781V53.95C274.208 55.192 274.829 55.813 275.909 55.813H280.607ZM328.78 55.813V58H309.016V55.813H313.795C314.821 55.813 315.415 55.192 315.577 53.95V34.753C315.577 31.621 314.767 29.191 313.147 27.463C311.527 25.681 309.448 24.79 306.91 24.79C304.372 24.79 302.023 25.627 299.863 27.301C297.811 29.029 296.785 30.649 296.785 32.161V53.95C296.947 55.192 297.568 55.813 298.648 55.813H303.346V58H283.582V55.813H288.28C289.36 55.813 289.981 55.192 290.143 53.95V25.924C290.089 24.088 289.171 23.17 287.389 23.17H283.582V20.983H296.866V23.17C296.812 23.818 296.785 24.574 296.785 25.438V27.058C297.217 26.032 298.351 24.736 300.187 23.17C302.941 21.01 305.938 19.93 309.178 19.93C317.872 19.93 322.219 24.547 322.219 33.781V53.95C322.381 55.192 323.002 55.813 324.082 55.813H328.78ZM365.532 39.208H339.774C339.774 43.96 340.962 47.659 343.338 50.305C345.768 53.167 349.332 54.598 354.03 54.598C356.514 54.598 359.727 53.356 363.669 50.872L364.722 51.682C360.888 56.38 356.136 58.729 350.466 58.729C344.796 58.729 340.341 57.028 337.101 53.626C334.077 50.332 332.565 45.958 332.565 40.504C332.565 35.05 334.185 30.352 337.425 26.41C340.719 22.414 345.12 20.416 350.628 20.416C355.164 20.416 358.809 21.955 361.563 25.033C364.317 28.057 365.694 31.783 365.694 36.211C365.694 36.805 365.64 37.804 365.532 39.208ZM358.566 36.292C358.566 32.404 357.837 29.218 356.379 26.734C354.975 24.25 352.842 23.008 349.98 23.008C347.118 23.008 344.715 24.169 342.771 26.491C340.827 28.813 339.855 32.026 339.855 36.13C349.953 36.4 356.19 36.454 358.566 36.292ZM377.264 37.426C377.264 43.258 378.695 47.605 381.557 50.467C384.419 53.329 387.875 54.76 391.925 54.76C394.679 54.76 397.379 54.004 400.025 52.492L400.835 53.626C397.595 57.028 393.437 58.729 388.361 58.729C383.339 58.729 379.127 57.19 375.725 54.112C372.161 50.71 370.379 46.255 370.379 40.747C370.379 35.185 372.377 30.325 376.373 26.167C380.531 22.117 385.499 20.2 391.277 20.416C394.625 20.632 397.055 21.469 398.567 22.927C400.079 24.331 400.781 25.789 400.673 27.301C400.619 28.759 400.133 29.866 399.215 30.622C398.297 31.378 397.325 31.756 396.299 31.756C395.273 31.756 394.328 31.54 393.464 31.108C392.6 30.622 392.249 30.082 392.411 29.488C392.573 28.894 393.086 28.381 393.95 27.949C394.922 27.355 395.327 26.734 395.165 26.086C395.003 24.25 393.14 23.332 389.576 23.332C387.146 23.332 384.662 24.385 382.124 26.491C378.884 29.137 377.264 32.782 377.264 37.426ZM413.685 14.179H417.816V24.142L427.941 23.98L427.779 27.706H417.816V48.604C417.816 52.222 419.22 54.031 422.028 54.031C423.27 54.031 424.809 53.545 426.645 52.573L427.212 53.464C425.376 57.19 422.568 59.053 418.788 59.053C413.604 58.945 411.012 56.11 411.012 50.548V27.706L404.937 27.868V25.681C405.315 25.573 405.828 25.438 406.476 25.276C408.96 24.682 410.769 23.521 411.903 21.793C413.037 20.011 413.631 17.473 413.685 14.179Z" fill="black"/>
</svg>
