<svg width="268" height="37" viewBox="0 0 268 37" fill="none" xmlns="http://www.w3.org/2000/svg">
<path d="M33.6209 18.864C33.6209 23.624 32.0399 27.721 28.8779 31.155C25.7499 34.589 22.1289 36.238 18.0149 36.102C11.8269 35.898 6.02988 35.864 0.623883 36V34.419H5.41788V2.442H0.623883V0.860999C3.64988 1.031 6.33588 1.099 8.68188 1.065C11.0279 1.031 14.1899 1.031 18.1679 1.065C22.9619 1.133 26.7359 2.765 29.4899 5.961C32.2439 9.123 33.6209 13.424 33.6209 18.864ZM25.8179 29.523C27.4839 26.871 28.2829 23.216 28.2149 18.558C28.1809 13.866 27.5179 10.262 26.2259 7.746C24.6279 4.516 21.9419 2.748 18.1679 2.442C15.1079 2.272 12.3709 2.34 9.95688 2.646V34.419C12.2689 34.623 14.0029 34.725 15.1589 34.725C16.3489 34.725 17.3179 34.691 18.0659 34.623C21.5679 34.113 24.1519 32.413 25.8179 29.523ZM58.8101 24.168H42.5921C42.5921 27.16 43.3401 29.489 44.8361 31.155C46.3661 32.957 48.6101 33.858 51.5681 33.858C53.1321 33.858 55.1551 33.076 57.6371 31.512L58.3001 32.022C55.8861 34.98 52.8941 36.459 49.3241 36.459C45.7541 36.459 42.9491 35.388 40.9091 33.246C39.0051 31.172 38.0531 28.418 38.0531 24.984C38.0531 21.55 39.0731 18.592 41.1131 16.11C43.1871 13.594 45.9581 12.336 49.4261 12.336C52.2821 12.336 54.5771 13.305 56.3111 15.243C58.0451 17.147 58.9121 19.493 58.9121 22.281C58.9121 22.655 58.8781 23.284 58.8101 24.168ZM54.4241 22.332C54.4241 19.884 53.9651 17.878 53.0471 16.314C52.1631 14.75 50.8201 13.968 49.0181 13.968C47.2161 13.968 45.7031 14.699 44.4791 16.161C43.2551 17.623 42.6431 19.646 42.6431 22.23C49.0011 22.4 52.9281 22.434 54.4241 22.332ZM87.4131 12.693V14.07H86.0871C85.1691 14.07 84.3701 14.801 83.6901 16.263L75.1731 36H72.7251L64.2081 15.243C63.9021 14.461 63.3241 14.07 62.4741 14.07H60.8421V12.693H72.6741V14.07H70.2771C69.3931 14.07 68.9511 14.393 68.9511 15.039C68.9511 15.175 68.9851 15.345 69.0531 15.549L75.1731 31.461L81.1401 16.263C81.3781 15.685 81.4971 15.226 81.4971 14.886C81.4971 14.342 81.2081 14.07 80.6301 14.07H78.0801V12.693H87.4131ZM117.415 29.472L118.129 30.288C116.327 32.804 114.406 34.521 112.366 35.439C110.326 36.357 107.827 36.816 104.869 36.816C100.517 36.816 96.8111 35.031 93.7511 31.461C90.6911 27.823 89.1781 23.369 89.2121 18.099C89.2801 12.795 90.8101 8.477 93.8021 5.145C96.7941 1.779 100.483 0.0959972 104.869 0.0959972C107.657 0.0959972 109.68 0.231997 110.938 0.503998C112.196 0.741999 113.709 1.201 115.477 1.881V9.888H113.947C113.709 6.896 112.91 4.737 111.55 3.411C110.19 2.051 108.014 1.439 105.022 1.575C98.4261 1.881 95.1281 7.508 95.1281 18.456C95.1281 23.284 95.9781 27.245 97.6781 30.339C99.4461 33.399 101.758 34.963 104.614 35.031C107.47 35.065 109.816 34.657 111.652 33.807C113.488 32.923 115.409 31.478 117.415 29.472ZM141.15 15.498C143.326 17.64 144.414 20.479 144.414 24.015C144.414 27.517 143.207 30.458 140.793 32.838C138.379 35.218 135.217 36.442 131.307 36.51C128.213 36.544 125.595 35.473 123.453 33.297C121.413 31.087 120.393 28.18 120.393 24.576C120.393 20.938 121.532 17.963 123.81 15.651C126.088 13.339 129.182 12.183 133.092 12.183C136.322 12.183 139.008 13.288 141.15 15.498ZM133.347 34.878C135.489 34.878 137.087 33.977 138.141 32.175C139.229 30.373 139.773 28.044 139.773 25.188C139.773 22.298 139.042 19.68 137.58 17.334C136.084 15.022 134.231 13.866 132.021 13.866C127.363 13.866 125.034 16.841 125.034 22.791C125.034 25.953 125.612 28.622 126.768 30.798C128.23 33.518 130.423 34.878 133.347 34.878ZM175.123 34.623V36H162.679V34.623H165.688C166.334 34.623 166.708 34.232 166.81 33.45V21.363C166.81 19.391 166.3 17.861 165.28 16.773C164.26 15.651 162.951 15.09 161.353 15.09C159.755 15.09 158.276 15.617 156.916 16.671C155.624 17.759 154.978 18.779 154.978 19.731V33.45C155.08 34.232 155.471 34.623 156.151 34.623H159.109V36H146.665V34.623H149.623C150.303 34.623 150.694 34.232 150.796 33.45V15.804C150.762 14.648 150.184 14.07 149.062 14.07H146.665V12.693H155.029V14.07C154.995 14.478 154.978 14.954 154.978 15.498V16.518C155.25 15.872 155.964 15.056 157.12 14.07C158.854 12.71 160.741 12.03 162.781 12.03C168.255 12.03 170.992 14.937 170.992 20.751V33.45C171.094 34.232 171.485 34.623 172.165 34.623H175.123ZM205.454 34.623V36H193.01V34.623H196.019C196.665 34.623 197.039 34.232 197.141 33.45V21.363C197.141 19.391 196.631 17.861 195.611 16.773C194.591 15.651 193.282 15.09 191.684 15.09C190.086 15.09 188.607 15.617 187.247 16.671C185.955 17.759 185.309 18.779 185.309 19.731V33.45C185.411 34.232 185.802 34.623 186.482 34.623H189.44V36H176.996V34.623H179.954C180.634 34.623 181.025 34.232 181.127 33.45V15.804C181.093 14.648 180.515 14.07 179.393 14.07H176.996V12.693H185.36V14.07C185.326 14.478 185.309 14.954 185.309 15.498V16.518C185.581 15.872 186.295 15.056 187.451 14.07C189.185 12.71 191.072 12.03 193.112 12.03C198.586 12.03 201.323 14.937 201.323 20.751V33.45C201.425 34.232 201.816 34.623 202.496 34.623H205.454ZM228.594 24.168H212.376C212.376 27.16 213.124 29.489 214.62 31.155C216.15 32.957 218.394 33.858 221.352 33.858C222.916 33.858 224.939 33.076 227.421 31.512L228.084 32.022C225.67 34.98 222.678 36.459 219.108 36.459C215.538 36.459 212.733 35.388 210.693 33.246C208.789 31.172 207.837 28.418 207.837 24.984C207.837 21.55 208.857 18.592 210.897 16.11C212.971 13.594 215.742 12.336 219.21 12.336C222.066 12.336 224.361 13.305 226.095 15.243C227.829 17.147 228.696 19.493 228.696 22.281C228.696 22.655 228.662 23.284 228.594 24.168ZM224.208 22.332C224.208 19.884 223.749 17.878 222.831 16.314C221.947 14.75 220.604 13.968 218.802 13.968C217 13.968 215.487 14.699 214.263 16.161C213.039 17.623 212.427 19.646 212.427 22.23C218.785 22.4 222.712 22.434 224.208 22.332ZM235.981 23.046C235.981 26.718 236.882 29.455 238.684 31.257C240.486 33.059 242.662 33.96 245.212 33.96C246.946 33.96 248.646 33.484 250.312 32.532L250.822 33.246C248.782 35.388 246.164 36.459 242.968 36.459C239.806 36.459 237.154 35.49 235.012 33.552C232.768 31.41 231.646 28.605 231.646 25.137C231.646 21.635 232.904 18.575 235.42 15.957C238.038 13.407 241.166 12.2 244.804 12.336C246.912 12.472 248.442 12.999 249.394 13.917C250.346 14.801 250.788 15.719 250.72 16.671C250.686 17.589 250.38 18.286 249.802 18.762C249.224 19.238 248.612 19.476 247.966 19.476C247.32 19.476 246.725 19.34 246.181 19.068C245.637 18.762 245.416 18.422 245.518 18.048C245.62 17.674 245.943 17.351 246.487 17.079C247.099 16.705 247.354 16.314 247.252 15.906C247.15 14.75 245.977 14.172 243.733 14.172C242.203 14.172 240.639 14.835 239.041 16.161C237.001 17.827 235.981 20.122 235.981 23.046ZM258.913 8.409H261.514V14.682L267.889 14.58L267.787 16.926H261.514V30.084C261.514 32.362 262.398 33.501 264.166 33.501C264.948 33.501 265.917 33.195 267.073 32.583L267.43 33.144C266.274 35.49 264.506 36.663 262.126 36.663C258.862 36.595 257.23 34.81 257.23 31.308V16.926L253.405 17.028V15.651C253.643 15.583 253.966 15.498 254.374 15.396C255.938 15.022 257.077 14.291 257.791 13.203C258.505 12.081 258.879 10.483 258.913 8.409Z" fill="black"/>
</svg>
