<svg width="221" height="34" viewBox="0 0 221 34" fill="none" xmlns="http://www.w3.org/2000/svg">
<path d="M30.1044 17.544C30.1044 21.8373 28.6784 25.5327 25.8264 28.63C23.005 31.7273 19.739 33.2147 16.0284 33.092C10.447 32.908 5.21836 32.8773 0.34236 33V31.574H4.66636V2.732H0.34236V1.306C3.07169 1.45933 5.49436 1.52067 7.61036 1.49C9.72636 1.45933 12.5784 1.45933 16.1664 1.49C20.4904 1.55133 23.8944 3.02333 26.3784 5.906C28.8624 8.758 30.1044 12.6373 30.1044 17.544ZM23.0664 27.158C24.569 24.766 25.2897 21.4693 25.2284 17.268C25.1977 13.036 24.5997 9.78533 23.4344 7.516C21.993 4.60266 19.5704 3.008 16.1664 2.732C13.4064 2.57866 10.9377 2.64 8.76036 2.916V31.574C10.8457 31.758 12.4097 31.85 13.4524 31.85C14.5257 31.85 15.3997 31.8193 16.0744 31.758C19.233 31.298 21.5637 29.7647 23.0664 27.158ZM52.824 22.328H38.196C38.196 25.0267 38.8707 27.1273 40.22 28.63C41.6 30.2553 43.624 31.068 46.292 31.068C47.7027 31.068 49.5274 30.3627 51.766 28.952L52.364 29.412C50.1867 32.08 47.488 33.414 44.268 33.414C41.048 33.414 38.518 32.448 36.678 30.516C34.9607 28.6453 34.102 26.1613 34.102 23.064C34.102 19.9667 35.022 17.2987 36.862 15.06C38.7327 12.7907 41.232 11.656 44.36 11.656C46.936 11.656 49.006 12.53 50.57 14.278C52.134 15.9953 52.916 18.1113 52.916 20.626C52.916 20.9633 52.8854 21.5307 52.824 22.328ZM48.868 20.672C48.868 18.464 48.454 16.6547 47.626 15.244C46.8287 13.8333 45.6174 13.128 43.992 13.128C42.3667 13.128 41.002 13.7873 39.898 15.106C38.794 16.4247 38.242 18.2493 38.242 20.58C43.9767 20.7333 47.5187 20.764 48.868 20.672ZM78.6229 11.978V13.22H77.4269C76.5989 13.22 75.8782 13.8793 75.2649 15.198L67.5829 33H65.3749L57.6929 14.278C57.4169 13.5727 56.8955 13.22 56.1289 13.22H54.6569V11.978H65.3289V13.22H63.1669C62.3695 13.22 61.9709 13.5113 61.9709 14.094C61.9709 14.2167 62.0015 14.37 62.0629 14.554L67.5829 28.906L72.9649 15.198C73.1795 14.6767 73.2869 14.2627 73.2869 13.956C73.2869 13.4653 73.0262 13.22 72.5049 13.22H70.2049V11.978H78.6229ZM105.683 27.112L106.327 27.848C104.702 30.1173 102.969 31.666 101.129 32.494C99.2894 33.322 97.0354 33.736 94.3674 33.736C90.4421 33.736 87.0994 32.126 84.3394 28.906C81.5794 25.6247 80.2148 21.6073 80.2454 16.854C80.3068 12.07 81.6868 8.17533 84.3854 5.17C87.0841 2.134 90.4114 0.615997 94.3674 0.615997C96.8821 0.615997 98.7068 0.738664 99.8414 0.983998C100.976 1.19867 102.341 1.61267 103.935 2.226V9.448H102.555C102.341 6.74933 101.62 4.802 100.393 3.606C99.1668 2.37933 97.2041 1.82733 94.5054 1.95C88.5561 2.226 85.5814 7.30133 85.5814 17.176C85.5814 21.5307 86.3481 25.1033 87.8814 27.894C89.4761 30.654 91.5614 32.0647 94.1374 32.126C96.7134 32.1567 98.8294 31.7887 100.485 31.022C102.141 30.2247 103.874 28.9213 105.683 27.112ZM127.092 14.508C129.054 16.44 130.036 19.0007 130.036 22.19C130.036 25.3487 128.947 28.0013 126.77 30.148C124.592 32.2947 121.74 33.3987 118.214 33.46C115.423 33.4907 113.062 32.5247 111.13 30.562C109.29 28.5687 108.37 25.9467 108.37 22.696C108.37 19.4147 109.397 16.7313 111.452 14.646C113.506 12.5607 116.297 11.518 119.824 11.518C122.737 11.518 125.16 12.5147 127.092 14.508ZM120.054 31.988C121.986 31.988 123.427 31.1753 124.378 29.55C125.359 27.9247 125.85 25.824 125.85 23.248C125.85 20.6413 125.19 18.28 123.872 16.164C122.522 14.0787 120.851 13.036 118.858 13.036C114.656 13.036 112.556 15.7193 112.556 21.086C112.556 23.938 113.077 26.3453 114.12 28.308C115.438 30.7613 117.416 31.988 120.054 31.988ZM157.734 31.758V33H146.51V31.758H149.224C149.807 31.758 150.144 31.4053 150.236 30.7V19.798C150.236 18.0193 149.776 16.6393 148.856 15.658C147.936 14.646 146.755 14.14 145.314 14.14C143.873 14.14 142.539 14.6153 141.312 15.566C140.147 16.5473 139.564 17.4673 139.564 18.326V30.7C139.656 31.4053 140.009 31.758 140.622 31.758H143.29V33H132.066V31.758H134.734C135.347 31.758 135.7 31.4053 135.792 30.7V14.784C135.761 13.7413 135.24 13.22 134.228 13.22H132.066V11.978H139.61V13.22C139.579 13.588 139.564 14.0173 139.564 14.508V15.428C139.809 14.8453 140.453 14.1093 141.496 13.22C143.06 11.9933 144.762 11.38 146.602 11.38C151.539 11.38 154.008 14.002 154.008 19.246V30.7C154.1 31.4053 154.453 31.758 155.066 31.758H157.734ZM185.091 31.758V33H173.867V31.758H176.581C177.164 31.758 177.501 31.4053 177.593 30.7V19.798C177.593 18.0193 177.133 16.6393 176.213 15.658C175.293 14.646 174.113 14.14 172.671 14.14C171.23 14.14 169.896 14.6153 168.669 15.566C167.504 16.5473 166.921 17.4673 166.921 18.326V30.7C167.013 31.4053 167.366 31.758 167.979 31.758H170.647V33H159.423V31.758H162.091C162.705 31.758 163.057 31.4053 163.149 30.7V14.784C163.119 13.7413 162.597 13.22 161.585 13.22H159.423V11.978H166.967V13.22C166.937 13.588 166.921 14.0173 166.921 14.508V15.428C167.167 14.8453 167.811 14.1093 168.853 13.22C170.417 11.9933 172.119 11.38 173.959 11.38C178.897 11.38 181.365 14.002 181.365 19.246V30.7C181.457 31.4053 181.81 31.758 182.423 31.758H185.091ZM191.243 21.316C191.243 24.628 192.055 27.0967 193.681 28.722C195.306 30.3473 197.269 31.16 199.569 31.16C201.133 31.16 202.666 30.7307 204.169 29.872L204.629 30.516C202.789 32.448 200.427 33.414 197.545 33.414C194.693 33.414 192.301 32.54 190.369 30.792C188.345 28.86 187.333 26.33 187.333 23.202C187.333 20.0433 188.467 17.2833 190.737 14.922C193.098 12.622 195.919 11.5333 199.201 11.656C201.102 11.7787 202.482 12.254 203.341 13.082C204.199 13.8793 204.598 14.7073 204.537 15.566C204.506 16.394 204.23 17.0227 203.709 17.452C203.187 17.8813 202.635 18.096 202.053 18.096C201.47 18.096 200.933 17.9733 200.443 17.728C199.952 17.452 199.753 17.1453 199.845 16.808C199.937 16.4707 200.228 16.1793 200.719 15.934C201.271 15.5967 201.501 15.244 201.409 14.876C201.317 13.8333 200.259 13.312 198.235 13.312C196.855 13.312 195.444 13.91 194.003 15.106C192.163 16.6087 191.243 18.6787 191.243 21.316ZM211.926 8.114H214.272V13.772L220.022 13.68L219.93 15.796H214.272V27.664C214.272 29.7187 215.07 30.746 216.664 30.746C217.37 30.746 218.244 30.47 219.286 29.918L219.608 30.424C218.566 32.54 216.971 33.598 214.824 33.598C211.88 33.5367 210.408 31.9267 210.408 28.768V15.796L206.958 15.888V14.646C207.173 14.5847 207.464 14.508 207.832 14.416C209.243 14.0787 210.27 13.4193 210.914 12.438C211.558 11.426 211.896 9.98467 211.926 8.114Z" fill="black"/>
</svg>
