<svg width="158" height="34" viewBox="0 0 158 34" fill="none" xmlns="http://www.w3.org/2000/svg">
<path d="M30.0555 17.544C30.0555 21.8373 28.6295 25.5327 25.7775 28.63C22.9562 31.7273 19.6902 33.2147 15.9795 33.092C10.3982 32.908 5.16953 32.8773 0.293531 33V31.574H4.61753V2.732H0.293531V1.306C3.02286 1.45933 5.44553 1.52067 7.56153 1.49C9.67753 1.45933 12.5295 1.45933 16.1175 1.49C20.4415 1.55133 23.8455 3.02333 26.3295 5.906C28.8135 8.758 30.0555 12.6373 30.0555 17.544ZM23.0175 27.158C24.5202 24.766 25.2409 21.4693 25.1795 17.268C25.1489 13.036 24.5509 9.78533 23.3855 7.516C21.9442 4.60266 19.5215 3.008 16.1175 2.732C13.3575 2.57866 10.8889 2.64 8.71153 2.916V31.574C10.7969 31.758 12.3609 31.85 13.4035 31.85C14.4769 31.85 15.3509 31.8193 16.0255 31.758C19.1842 31.298 21.5149 29.7647 23.0175 27.158ZM52.7752 22.328H38.1472C38.1472 25.0267 38.8219 27.1273 40.1712 28.63C41.5512 30.2553 43.5752 31.068 46.2432 31.068C47.6539 31.068 49.4786 30.3627 51.7172 28.952L52.3152 29.412C50.1379 32.08 47.4392 33.414 44.2192 33.414C40.9992 33.414 38.4692 32.448 36.6292 30.516C34.9119 28.6453 34.0532 26.1613 34.0532 23.064C34.0532 19.9667 34.9732 17.2987 36.8132 15.06C38.6839 12.7907 41.1832 11.656 44.3112 11.656C46.8872 11.656 48.9572 12.53 50.5212 14.278C52.0852 15.9953 52.8672 18.1113 52.8672 20.626C52.8672 20.9633 52.8366 21.5307 52.7752 22.328ZM48.8192 20.672C48.8192 18.464 48.4052 16.6547 47.5772 15.244C46.7799 13.8333 45.5686 13.128 43.9432 13.128C42.3179 13.128 40.9532 13.7873 39.8492 15.106C38.7452 16.4247 38.1932 18.2493 38.1932 20.58C43.9279 20.7333 47.4699 20.764 48.8192 20.672ZM78.574 11.978V13.22H77.378C76.55 13.22 75.8294 13.8793 75.216 15.198L67.534 33H65.326L57.644 14.278C57.368 13.5727 56.8467 13.22 56.08 13.22H54.608V11.978H65.28V13.22H63.118C62.3207 13.22 61.922 13.5113 61.922 14.094C61.922 14.2167 61.9527 14.37 62.014 14.554L67.534 28.906L72.916 15.198C73.1307 14.6767 73.238 14.2627 73.238 13.956C73.238 13.4653 72.9774 13.22 72.456 13.22H70.156V11.978H78.574ZM105.635 27.112L106.279 27.848C104.653 30.1173 102.921 31.666 101.081 32.494C99.2406 33.322 96.9866 33.736 94.3186 33.736C90.3933 33.736 87.0506 32.126 84.2906 28.906C81.5306 25.6247 80.1659 21.6073 80.1966 16.854C80.2579 12.07 81.6379 8.17533 84.3366 5.17C87.0353 2.134 90.3626 0.615997 94.3186 0.615997C96.8333 0.615997 98.6579 0.738664 99.7926 0.983998C100.927 1.19867 102.292 1.61267 103.887 2.226V9.448H102.507C102.292 6.74933 101.571 4.802 100.345 3.606C99.1179 2.37933 97.1553 1.82733 94.4566 1.95C88.5073 2.226 85.5326 7.30133 85.5326 17.176C85.5326 21.5307 86.2993 25.1033 87.8326 27.894C89.4273 30.654 91.5126 32.0647 94.0886 32.126C96.6646 32.1567 98.7806 31.7887 100.437 31.022C102.093 30.2247 103.825 28.9213 105.635 27.112ZM127.043 14.508C129.006 16.44 129.987 19.0007 129.987 22.19C129.987 25.3487 128.898 28.0013 126.721 30.148C124.544 32.2947 121.692 33.3987 118.165 33.46C115.374 33.4907 113.013 32.5247 111.081 30.562C109.241 28.5687 108.321 25.9467 108.321 22.696C108.321 19.4147 109.348 16.7313 111.403 14.646C113.458 12.5607 116.248 11.518 119.775 11.518C122.688 11.518 125.111 12.5147 127.043 14.508ZM120.005 31.988C121.937 31.988 123.378 31.1753 124.329 29.55C125.31 27.9247 125.801 25.824 125.801 23.248C125.801 20.6413 125.142 18.28 123.823 16.164C122.474 14.0787 120.802 13.036 118.809 13.036C114.608 13.036 112.507 15.7193 112.507 21.086C112.507 23.938 113.028 26.3453 114.071 28.308C115.39 30.7613 117.368 31.988 120.005 31.988ZM157.685 31.758V33H146.461V31.758H149.175C149.758 31.758 150.095 31.4053 150.187 30.7V19.798C150.187 18.0193 149.727 16.6393 148.807 15.658C147.887 14.646 146.706 14.14 145.265 14.14C143.824 14.14 142.49 14.6153 141.263 15.566C140.098 16.5473 139.515 17.4673 139.515 18.326V30.7C139.607 31.4053 139.96 31.758 140.573 31.758H143.241V33H132.017V31.758H134.685C135.298 31.758 135.651 31.4053 135.743 30.7V14.784C135.712 13.7413 135.191 13.22 134.179 13.22H132.017V11.978H139.561V13.22C139.53 13.588 139.515 14.0173 139.515 14.508V15.428C139.76 14.8453 140.404 14.1093 141.447 13.22C143.011 11.9933 144.713 11.38 146.553 11.38C151.49 11.38 153.959 14.002 153.959 19.246V30.7C154.051 31.4053 154.404 31.758 155.017 31.758H157.685Z" fill="black"/>
</svg>
