<svg width="70" height="82" viewBox="0 0 70 82" fill="none" xmlns="http://www.w3.org/2000/svg">
<path d="M9 41.3333H68M9 21.6667H68M28.6667 61V2M48.3333 61V2M16.8667 2H60.1333C62.2197 2 64.2206 2.82881 65.6959 4.30409C67.1712 5.77938 68 7.7803 68 9.86667V53.1333C68 55.2197 67.1712 57.2206 65.6959 58.6959C64.2206 60.1712 62.2197 61 60.1333 61H16.8667C14.7803 61 12.7794 60.1712 11.3041 58.6959C9.82881 57.2206 9 55.2197 9 53.1333V9.86667C9 8.8336 9.20348 7.81065 9.59881 6.85622C9.99415 5.9018 10.5736 5.03458 11.3041 4.30409C12.7794 2.82881 14.7803 2 16.8667 2Z" stroke="#00317F" stroke-width="3" stroke-miterlimit="10" stroke-linecap="round" stroke-linejoin="round"/>
</svg>
