<svg width="75" height="75" viewBox="0 0 75 75" fill="none" xmlns="http://www.w3.org/2000/svg">
<path d="M1 49.5H73.75M1 25.25H73.75M25.25 73.75V1M49.5 73.75V1M10.7 1H64.05C66.6226 1 69.0898 2.02196 70.9089 3.84106C72.728 5.66017 73.75 8.1274 73.75 10.7V64.05C73.75 66.6226 72.728 69.0898 70.9089 70.9089C69.0898 72.728 66.6226 73.75 64.05 73.75H10.7C8.1274 73.75 5.66017 72.728 3.84106 70.9089C2.02196 69.0898 1 66.6226 1 64.05V10.7C1 9.42618 1.2509 8.16483 1.73837 6.98797C2.22584 5.81111 2.94034 4.74179 3.84106 3.84106C5.66017 2.02196 8.1274 1 10.7 1Z" stroke="black" stroke-width="1.5" stroke-miterlimit="10" stroke-linecap="round" stroke-linejoin="round"/>
</svg>
