<svg width="59" height="59" viewBox="0 0 59 59" fill="none" xmlns="http://www.w3.org/2000/svg">
<path d="M10.0471 15.9226C11.0892 14.8805 12.3263 14.0538 13.6879 13.4898C15.0495 12.9258 16.5088 12.6356 17.9826 12.6356C19.4564 12.6356 20.9157 12.9258 22.2773 13.4898C23.6388 14.0538 24.876 14.8805 25.9181 15.9226L29.4999 19.5044L33.0817 15.9226C35.1866 13.818 38.0414 12.6358 41.018 12.636C43.9947 12.6362 46.8493 13.8189 48.9539 15.9239C51.0585 18.0288 52.2408 20.8836 52.2405 23.8602C52.2403 26.8369 51.0576 29.6915 48.9527 31.7961L45.3709 35.3754L45.4028 35.4074L29.5318 51.2808L29.4999 51.2489L29.4679 51.2808L13.5969 35.4074L13.6289 35.3754L10.0471 31.7961C9.0046 30.754 8.17762 29.5166 7.61341 28.1548C7.04919 26.793 6.75879 25.3334 6.75879 23.8594C6.75879 22.3853 7.04919 20.9257 7.61341 19.5639C8.17762 18.2021 9.0046 16.9648 10.0471 15.9226Z" stroke="#00317F" stroke-width="3" stroke-linejoin="round"/>
</svg>
