<svg width="97" height="97" viewBox="0 0 97 97" fill="none" xmlns="http://www.w3.org/2000/svg">
<path d="M48.5 84.875C55.6943 84.875 62.727 82.7416 68.7089 78.7447C74.6907 74.7478 79.353 69.0668 82.1061 62.4201C84.8593 55.7734 85.5796 48.4596 84.1761 41.4036C82.7725 34.3475 79.3081 27.8661 74.221 22.779C69.1339 17.6918 62.6525 14.2275 55.5964 12.8239C48.5403 11.4204 41.2266 12.1407 34.5799 14.8939C27.9332 17.647 22.2522 22.3093 18.2553 28.2911C14.2584 34.273 12.125 41.3057 12.125 48.5C12.125 54.514 13.58 60.1804 16.1667 65.1799L12.125 84.875L31.82 80.8333C36.8155 83.4159 42.49 84.875 48.5 84.875Z" stroke="black" stroke-width="1.5" stroke-linecap="round" stroke-linejoin="round"/>
</svg>
