<svg width="59" height="59" viewBox="0 0 59 59" fill="none" xmlns="http://www.w3.org/2000/svg">
<path d="M29.5 51.625C33.8759 51.625 38.1536 50.3274 41.792 47.8963C45.4304 45.4652 48.2663 42.0097 49.9408 37.9669C51.6154 33.9241 52.0536 29.4755 51.1999 25.1836C50.3462 20.8918 48.239 16.9495 45.1447 13.8553C42.0505 10.761 38.1082 8.65383 33.8164 7.80014C29.5245 6.94644 25.0759 7.38459 21.0331 9.05918C16.9903 10.7338 13.5349 13.5696 11.1037 17.208C8.67261 20.8465 7.375 25.1241 7.375 29.5C7.375 33.158 8.26 36.6046 9.83333 39.6456L7.375 51.625L19.3545 49.1667C22.393 50.7376 25.8445 51.625 29.5 51.625Z" stroke="url(#paint0_linear_19_30)" stroke-width="3" stroke-linecap="round" stroke-linejoin="round"/>
<defs>
<linearGradient id="paint0_linear_19_30" x1="29.5" y1="7.375" x2="29.5" y2="51.625" gradientUnits="userSpaceOnUse">
<stop offset="0.235577" stop-color="#00317F"/>
<stop offset="1" stop-color="#0058E5"/>
</linearGradient>
</defs>
</svg>
